<?xml version="1.0" standalone="no"?>
<!DOCTYPE svg PUBLIC "-//W3C//DTD SVG 20010904//EN"
 "http://www.w3.org/TR/2001/REC-SVG-20010904/DTD/svg10.dtd">
<svg version="1.0" xmlns="http://www.w3.org/2000/svg"
 width="120.000000pt" height="120.000000pt" viewBox="0 0 120.000000 120.000000"
 preserveAspectRatio="xMidYMid meet">
<metadata>
Created by potrace 1.16, written by Peter Selinger 2001-2019
</metadata>
<g transform="translate(0.000000,120.000000) scale(0.100000,-0.100000)"
fill="#000000" stroke="none">
<path d="M695 1179 c-5 -15 -1 -25 17 -37 58 -41 124 -138 152 -224 6 -19 66
-26 66 -8 0 33 -80 170 -132 226 -63 66 -92 79 -103 43z"/>
<path d="M180 474 c0 -18 259 -257 395 -365 92 -73 143 -94 220 -93 70 2 131
28 212 93 48 38 124 131 106 131 -4 0 -21 -13 -38 -28 -58 -54 -139 -114 -189
-139 -66 -34 -144 -35 -208 -4 -51 24 -265 197 -378 305 -94 90 -120 112 -120
100z"/>
<path d="M0 412 c0 -27 91 -152 138 -189 42 -34 109 -70 116 -62 2 2 7 14 10
26 6 19 2 25 -21 35 -55 25 -130 98 -170 165 -18 32 -31 43 -49 43 -17 0 -24
-6 -24 -18z"/>
</g>
</svg>
